<svg width="48" height="48" viewBox="0 0 48 48" fill="none" xmlns="http://www.w3.org/2000/svg">
  <rect width="48" height="48" rx="12" fill="url(#gradient)"/>
  <path d="M24 12C18.48 12 14 16.48 14 22C14 27.52 18.48 32 24 32C29.52 32 34 27.52 34 22C34 16.48 29.52 12 24 12ZM24 28C20.69 28 18 25.31 18 22C18 18.69 20.69 16 24 16C27.31 16 30 18.69 30 22C30 25.31 27.31 28 24 28Z" fill="white"/>
  <path d="M24 20C22.9 20 22 20.9 22 22C22 23.1 22.9 24 24 24C25.1 24 26 23.1 26 22C26 20.9 25.1 20 24 20Z" fill="white"/>
  <path d="M12 36H36V40H12V36Z" fill="white"/>
  <defs>
    <linearGradient id="gradient" x1="0" y1="0" x2="48" y2="48" gradientUnits="userSpaceOnUse">
      <stop stopColor="#8B5CF6"/>
      <stop offset="1" stopColor="#3B82F6"/>
    </linearGradient>
  </defs>
</svg>
